PathFileType	4	(X/Y/Z)	C:\Users\chris\Documents\GitHub\baseballds\vids\pitch3_Sports2D\pitch3_Sports2D_m_person00.trc
DataRate	CameraRate	NumFrames	NumMarkers	Units	OrigDataRate	OrigDataStartFrame	OrigNumFrames
30	30	12	22	m	30	0	240
Frame#	Time	Hip			RHip			RKnee			RAnkle			RBigToe			RSmallToe			RHeel			LHip			LKnee			LAnkle			LBigToe			LSmallToe			LHeel			Neck			Head			Nose			RShoulder			RElbow			RWrist			LShoulder			LElbow			LWrist		
		X1	Y1	Z1	X2	Y2	Z2	X3	Y3	Z3	X4	Y4	Z4	X5	Y5	Z5	X6	Y6	Z6	X7	Y7	Z7	X8	Y8	Z8	X9	Y9	Z9	X10	Y10	Z10	X11	Y11	Z11	X12	Y12	Z12	X13	Y13	Z13	X14	Y14	Z14	X15	Y15	Z15	X16	Y16	Z16	X17	Y17	Z17	X18	Y18	Z18	X19	Y19	Z19	X20	Y20	Z20	X21	Y21	Z21	X22	Y22	Z22
0	0.0	0.7252718271529055	0.9381208486315294	0.0	0.6884452352413952	0.9101756041891192	0.0	0.7106181024605159	0.4971158357362643	0.0	0.5918373828021026	0.10267854306338078	0.0	0.7585604191140625	-0.01231537218015399	0.0	0.7021990876806578	-0.02127340763561303	0.0	0.5460085879925805	0.04858195454892984	0.0	0.7542173821466615	0.906954072609261	0.0	0.7358853158047085	0.5211190345670709	0.0	0.6603764867935231	0.20299151232427678	0.0	0.8299664081629612	0.10949271517517989	0.0	0.8118633970898074	0.13922651276327155	0.0	0.6084090877750324	0.14423623778097897	0.0	0.8922425311477857	1.528521884460572	0.0	0.9996592359559897	1.7549396989325874	0.0	1.056216839515844	1.5998191804649324	0.0	0.7980288478861097	1.4425388089889792	0.0	0.6914256625880068	1.1394562475796906	0.0	0.839525782207764	0.884745440909976	0.0	0.8753600092382673	1.4432576399937618	0.0	0.7777596586800511	1.1663275303519294	0.0	0.8539510768283028	0.9101806280170001	0.0
1	0.03333333333333333	0.7238022897135495	0.9357936947096523	0.0	0.6917940431702311	0.9034097144471275	0.0	0.7098665292955672	0.500614877150376	0.0	0.5890532120450823	0.10867807150104686	0.0	0.7616748793242231	-0.0018662072306163114	0.0	0.7073102758671614	-0.009399514482623085	0.0	0.5372353486500864	0.05479620570640925	0.0	0.750223365096625	0.8991151418306932	0.0	0.7418759929083597	0.5261752585333921	0.0	0.6657513229461056	0.20883720291214122	0.0	0.8338437894087821	0.10845889577199119	0.0	0.8135882302250892	0.13943253777830417	0.0	0.6242094228796888	0.1556587524134896	0.0	0.886154761310408	1.5286243184427837	0.0	1.0007664857579923	1.7519821924939047	0.0	1.0512679754128385	1.5913486386047706	0.0	0.7985743623593947	1.4415363496224523	0.0	0.6896656340433822	1.1412666148987896	0.0	0.8336799826775346	0.8879732813240125	0.0	0.8723079439716988	1.437550907624562	0.0	0.7758683602010784	1.1650946545722125	0.0	0.8440599702029676	0.930024104198195	0.0
2	0.06666666666666667	0.7222388509343625	0.93293544788606	0.0	0.6926226854433708	0.8995813010236086	0.0	0.7067568393518882	0.5021859234438398	0.0	0.5852607790526188	0.11063438998196733	0.0	0.7620922795726194	0.003984990182460576	0.0	0.7097089287433676	-0.003918371943577569	0.0	0.5318834126743364	0.05737236718156524	0.0	0.7459217055520936	0.8960004457693759	0.0	0.7414545647102506	0.5283954001624637	0.0	0.6644677559024068	0.2116174572977357	0.0	0.8342161742022594	0.1081579327064592	0.0	0.8126198082476547	0.14132800018807426	0.0	0.6280672229752225	0.1599005697605369	0.0	0.8825103385356086	1.5288878461429964	0.0	0.9978436674953606	1.751020075865031	0.0	1.0499149505353247	1.5881236791739528	0.0	0.7955576944612668	1.4415248452305747	0.0	0.6863473178020995	1.144791012152168	0.0	0.8307875969309559	0.8906903243761888	0.0	0.8702202197256497	1.4367411810590833	0.0	0.7889040122292132	1.1811758029562767	0.0	0.862924299884536	1.0095449272708206	0.0
3	0.1	0.7208560260553462	0.9306314389904344	0.0	0.6908456253715382	0.8994104886419855	0.0	0.7028004152860569	0.5027890459781659	0.0	0.5807388509444842	0.11008503064906444	0.0	0.7574534649876005	0.004706448255913333	0.0	0.7058931019486377	-0.0039860700631571015	0.0	0.53045794443763	0.05813434052363582	0.0	0.7428883223846712	0.8977361719795726	0.0	0.7346341007347323	0.527878697094203	0.0	0.6576036802748796	0.2122945799005582	0.0	0.8302553601099031	0.10979991506733777	0.0	0.8091388541978058	0.14468517847667015	0.0	0.6205186563734137	0.15910306475862954	0.0	0.8800899430328795	1.5295579964386052	0.0	0.9923753604083605	1.7515731097642326	0.0	1.050849632457839	1.5884955238572642	0.0	0.7890375116551213	1.4417876972330657	0.0	0.682199316362524	1.1479040714572764	0.0	0.8300887115745863	0.8914204743078185	0.0	0.8678149183609217	1.4383256352682532	0.0	0.8030412216692215	1.2002584649592705	0.0	0.8947609771029024	1.1154427201849622	0.0
4	0.13333333333333333	0.7187485879711301	0.9309862047400783	0.0	0.6875803987085451	0.9024865533398464	0.0	0.7009412084759119	0.5041024151352071	0.0	0.5767736234420844	0.11115247964247699	0.0	0.749867773211447	0.005434930662975419	0.0	0.6975880959783326	-0.003180503662506615	0.0	0.5294700689075817	0.06053331367591689	0.0	0.7420692408978284	0.9028573931736213	0.0	0.7287631951356579	0.5282094560952753	0.0	0.6524336249363205	0.2137044962985562	0.0	0.8250091218579456	0.11286400977079562	0.0	0.8052905370731898	0.14788961024028105	0.0	0.6133936840125656	0.16010038837139154	0.0	0.8765880190324978	1.5305819334906725	0.0	0.9865250931253914	1.7529312710004228	0.0	1.0502984264264603	1.589866170967022	0.0	0.7829253129132664	1.4416013545241533	0.0	0.6781270082079526	1.1478476833377425	0.0	0.8287350908288336	0.8903888995026972	0.0	0.8645414301403558	1.4383553394769977	0.0	0.7961479040463354	1.2002094960704042	0.0	0.9036113889135172	1.1644812635704953	0.0
5	0.16666666666666666	0.7153484340577565	0.9332743733058594	0.0	0.6838929204064236	0.9062264134803851	0.0	0.7012037233868039	0.5053576230040142	0.0	0.5741832626895698	0.11450399979355123	0.0	0.7453768597811953	0.00993988148783991	0.0	0.6919179578518946	0.0010500169496355115	0.0	0.5262049997868091	0.06348742869463332	0.0	0.7421981035544907	0.9079776628211904	0.0	0.7289512143705845	0.5313976767049884	0.0	0.652220492219683	0.21649015062004426	0.0	0.8225170891645502	0.11543274911794012	0.0	0.8028593397905387	0.15027013078083123	0.0	0.6132124621145438	0.16459155090440247	0.0	0.8719133942542912	1.530760597240552	0.0	0.9801881036269857	1.7552506849358447	0.0	1.0469507589849956	1.5924358836109345	0.0	0.7801933745542254	1.4416106681613587	0.0	0.6742990548678628	1.145196255971432	0.0	0.8254357807371918	0.8899886673682345	0.0	0.8623380400151237	1.4369439311145815	0.0	0.774158572143645	1.1854158386036535	0.0	0.8839280875543444	1.134188064696608	0.0
6	0.2	0.7127190899449045	0.9345300987307631	0.0	0.6812152552088658	0.9062861928405571	0.0	0.7007767953816093	0.505077953197748	0.0	0.5726276431618771	0.11687681993193838	0.0	0.7462357516254717	0.014154316855249474	0.0	0.6916149058330479	0.004171699575546849	0.0	0.5225021193717047	0.0636302378147255	0.0	0.7417341682351032	0.9077229339453647	0.0	0.7296409287292489	0.5342339974787633	0.0	0.6523691419745015	0.21772547065083997	0.0	0.8229581519079461	0.11684345923385112	0.0	0.8020392337959227	0.15176258568475923	0.0	0.6133268388878379	0.16746803833874557	0.0	0.8670318578210013	1.5288098592499557	0.0	0.9740122965218566	1.7574016179605378	0.0	1.0424255416801196	1.5948622936171888	0.0	0.7793625725631235	1.4421759908319316	0.0	0.67123482166127	1.1429230294226367	0.0	0.8207383393183836	0.8910218005184115	0.0	0.8617565674175367	1.4346423242348505	0.0	0.7586642268330457	1.1708333485330096	0.0	0.8558622718405333	1.0616983936338018	0.0
7	0.23333333333333334	0.7127809000988159	0.9335267795038984	0.0	0.6802694155479706	0.9018308852778905	0.0	0.6983758088064631	0.5039836894280817	0.0	0.5712993526339089	0.11622986014914787	0.0	0.7477652737741647	0.013847606289016733	0.0	0.6919482177319248	0.0034257961696433307	0.0	0.5206934040075171	0.06183070496382152	0.0	0.7405909592819347	0.9014487169329481	0.0	0.72458728647141	0.5331222870236082	0.0	0.6490884076161367	0.21519089123315716	0.0	0.8227963595923391	0.11691644323875182	0.0	0.8015334474338374	0.15145868192228779	0.0	0.6084793477635478	0.1651827582487407	0.0	0.8623607576657464	1.5252252342565695	0.0	0.9693997847429727	1.7577688172436285	0.0	1.0380030402178524	1.5949101285095666	0.0	0.7770667417977474	1.4418488621779548	0.0	0.6686757150846059	1.1424137844572897	0.0	0.8155951238412783	0.8915297458453619	0.0	0.8612306766625973	1.4304418178076426	0.0	0.7554098068585796	1.1586831245978488	0.0	0.8322598082084003	0.984435243446878	0.0
8	0.26666666666666666	0.7139454283158115	0.931012302675208	0.0	0.6798627153480536	0.8970510625500485	0.0	0.6964040849381927	0.5034100889128557	0.0	0.5698367158222637	0.11424271838275923	0.0	0.7467871705782297	0.012305796518109794	0.0	0.6906269441579548	0.0024493984675844284	0.0	0.5197969820645353	0.06135035844948397	0.0	0.7393734685162096	0.8945704742859546	0.0	0.7184843378217168	0.529131646716975	0.0	0.6448255344972114	0.2113353831100006	0.0	0.8207892280046755	0.1148958680942024	0.0	0.8006243363309494	0.14908923126219303	0.0	0.6049409003755378	0.16127776248154854	0.0	0.8582378859881913	1.5220146338073086	0.0	0.9657233658982639	1.7568404874754588	0.0	1.0330835282826198	1.5936209321051786	0.0	0.7723386770475862	1.439415145269997	0.0	0.6654660934953814	1.1417835911072045	0.0	0.811196279373693	0.8900438383365694	0.0	0.860546850272521	1.4253026281206105	0.0	0.7568287168629618	1.1479112614017295	0.0	0.8145249809272624	0.9300415231975702	0.0
9	0.3	0.7129654817616561	0.928402704873224	0.0	0.6781620952927628	0.8956229198690665	0.0	0.6969159531629399	0.5028248554252358	0.0	0.5684132830690574	0.11308321607086365	0.0	0.7453172409842737	0.01332711595726104	0.0	0.6898850390027041	0.004039699734204756	0.0	0.5178690228274043	0.06191596254557599	0.0	0.737900370563499	0.8914618478468056	0.0	0.7176270141799108	0.5259045861601057	0.0	0.6427211107009612	0.20961486143203414	0.0	0.8193608175884608	0.11217872259184106	0.0	0.7999716072341017	0.1467518504614874	0.0	0.6076004000935535	0.16034267119943288	0.0	0.8550227991900943	1.5208777010153511	0.0	0.9609820181541826	1.7562314127407994	0.0	1.0274439706998242	1.5933739968908056	0.0	0.7671365398577616	1.4360756724629404	0.0	0.6618821926610704	1.1395432934536218	0.0	0.8081977628160186	0.8877542197783107	0.0	0.8596411652561149	1.4223128058460344	0.0	0.7568024059367361	1.141432779984505	0.0	0.8023397273366513	0.9093032287884313	0.0
10	0.3333333333333333	0.7087882811825729	0.9265609828604315	0.0	0.6742062225519042	0.8959758281982078	0.0	0.6980022685207243	0.5007908205312424	0.0	0.5668079321131897	0.11198075400673614	0.0	0.742276452434901	0.01405183433108376	0.0	0.6878048804832708	0.004839684467972828	0.0	0.514856925912756	0.06067477034053293	0.0	0.7350181009902239	0.8912333435662395	0.0	0.7190257253620292	0.5247927386506976	0.0	0.641399300391973	0.2096686141808454	0.0	0.81853275037535	0.11179053719212002	0.0	0.7987032941300115	0.14623137492441793	0.0	0.6091709834511436	0.16109748632478213	0.0	0.85239917412887	1.5214965841127719	0.0	0.9543441857309599	1.7566732288686437	0.0	1.02229343328624	1.594535358925865	0.0	0.7632110536570923	1.4333265974749958	0.0	0.6592595018524547	1.1365950884278897	0.0	0.805662959553647	0.8868667549433007	0.0	0.8567986640624896	1.4218514016339943	0.0	0.7535117927403951	1.1393301229789112	0.0	0.7962367487577121	0.9091612210522516	0.0
11	0.36666666666666664	0.7032255524683088	0.9247688346520648	0.0	0.6685099924670413	0.8940506963113846	0.0	0.696716329809205	0.4968549741276573	0.0	0.564207523003542	0.10859255163330589	0.0	0.7353110460395886	0.01020111993576453	0.0	0.6818241483440939	0.0006970084913401025	0.0	0.5119335990183882	0.05638044473051577	0.0	0.7302777230082016	0.8900619498116277	0.0	0.7175199010850117	0.5235841244950281	0.0	0.6388112049062911	0.20868552897949658	0.0	0.8159288369472459	0.112748996619194	0.0	0.7952182286556184	0.1456409112377568	0.0	0.6036465224908305	0.15946942384522586	0.0	0.8496000752618778	1.5217537726259882	0.0	0.9462798896121078	1.7578108302994937	0.0	1.0181048833688453	1.5962126163138826	0.0	0.760569978792675	1.4310480170334914	0.0	0.657721183266954	1.1334948385837147	0.0	0.8028029771474922	0.8875688082439508	0.0	0.8518095529277978	1.4211226349321144	0.0	0.7482778106941012	1.1379118115365254	0.0	0.795457908774962	0.9116415618092713	0.0
